<mxfile host="app.diagrams.net" modified="2022-03-23T22:06:40.800Z" agent="5.0 (Windows NT 10.0; Win64; x64) AppleWebKit/537.36 (KHTML, like Gecko) Chrome/101.0.4922.0 Safari/537.36 Edg/101.0.1201.0" etag="_A6SVcGzHydmpEkGcAyh" version="17.2.1" type="github">
  <diagram id="anYohrWTvxZmmpcertRa" name="Page-1">
    <mxGraphModel dx="2941" dy="1326" grid="1" gridSize="10" guides="1" tooltips="1" connect="1" arrows="1" fold="1" page="1" pageScale="1" pageWidth="827" pageHeight="1169" math="0" shadow="0">
      <root>
        <mxCell id="0" />
        <mxCell id="1" parent="0" />
        <mxCell id="tKwwfUB_ikjW06GqXjzd-3" value="" style="edgeStyle=orthogonalEdgeStyle;rounded=0;orthogonalLoop=1;jettySize=auto;html=1;" edge="1" parent="1" source="tKwwfUB_ikjW06GqXjzd-1" target="tKwwfUB_ikjW06GqXjzd-2">
          <mxGeometry relative="1" as="geometry" />
        </mxCell>
        <mxCell id="tKwwfUB_ikjW06GqXjzd-1" value="" style="rounded=1;whiteSpace=wrap;html=1;" vertex="1" parent="1">
          <mxGeometry x="340" y="40" width="120" height="60" as="geometry" />
        </mxCell>
        <mxCell id="tKwwfUB_ikjW06GqXjzd-5" value="" style="edgeStyle=orthogonalEdgeStyle;rounded=0;orthogonalLoop=1;jettySize=auto;html=1;" edge="1" parent="1" source="tKwwfUB_ikjW06GqXjzd-2" target="tKwwfUB_ikjW06GqXjzd-4">
          <mxGeometry relative="1" as="geometry" />
        </mxCell>
        <mxCell id="tKwwfUB_ikjW06GqXjzd-7" value="" style="edgeStyle=orthogonalEdgeStyle;rounded=0;orthogonalLoop=1;jettySize=auto;html=1;" edge="1" parent="1" source="tKwwfUB_ikjW06GqXjzd-2" target="tKwwfUB_ikjW06GqXjzd-6">
          <mxGeometry relative="1" as="geometry" />
        </mxCell>
        <mxCell id="tKwwfUB_ikjW06GqXjzd-9" value="" style="edgeStyle=orthogonalEdgeStyle;rounded=0;orthogonalLoop=1;jettySize=auto;html=1;" edge="1" parent="1" source="tKwwfUB_ikjW06GqXjzd-2" target="tKwwfUB_ikjW06GqXjzd-8">
          <mxGeometry relative="1" as="geometry" />
        </mxCell>
        <mxCell id="tKwwfUB_ikjW06GqXjzd-11" value="" style="edgeStyle=orthogonalEdgeStyle;rounded=0;orthogonalLoop=1;jettySize=auto;html=1;" edge="1" parent="1" source="tKwwfUB_ikjW06GqXjzd-2" target="tKwwfUB_ikjW06GqXjzd-10">
          <mxGeometry relative="1" as="geometry">
            <Array as="points">
              <mxPoint x="400" y="260" />
              <mxPoint x="330" y="260" />
            </Array>
          </mxGeometry>
        </mxCell>
        <mxCell id="tKwwfUB_ikjW06GqXjzd-13" style="edgeStyle=orthogonalEdgeStyle;rounded=0;orthogonalLoop=1;jettySize=auto;html=1;exitX=0.5;exitY=1;exitDx=0;exitDy=0;entryX=0.5;entryY=0;entryDx=0;entryDy=0;" edge="1" parent="1" source="tKwwfUB_ikjW06GqXjzd-2" target="tKwwfUB_ikjW06GqXjzd-12">
          <mxGeometry relative="1" as="geometry" />
        </mxCell>
        <mxCell id="tKwwfUB_ikjW06GqXjzd-17" style="edgeStyle=orthogonalEdgeStyle;rounded=0;orthogonalLoop=1;jettySize=auto;html=1;entryX=0.5;entryY=0;entryDx=0;entryDy=0;" edge="1" parent="1" source="tKwwfUB_ikjW06GqXjzd-2" target="tKwwfUB_ikjW06GqXjzd-14">
          <mxGeometry relative="1" as="geometry">
            <Array as="points">
              <mxPoint x="400" y="260" />
              <mxPoint x="190" y="260" />
            </Array>
          </mxGeometry>
        </mxCell>
        <mxCell id="tKwwfUB_ikjW06GqXjzd-88" style="edgeStyle=orthogonalEdgeStyle;rounded=0;orthogonalLoop=1;jettySize=auto;html=1;exitX=0.5;exitY=1;exitDx=0;exitDy=0;entryX=0.5;entryY=0;entryDx=0;entryDy=0;" edge="1" parent="1" source="tKwwfUB_ikjW06GqXjzd-2" target="tKwwfUB_ikjW06GqXjzd-87">
          <mxGeometry relative="1" as="geometry" />
        </mxCell>
        <mxCell id="tKwwfUB_ikjW06GqXjzd-2" value="" style="whiteSpace=wrap;html=1;rounded=1;" vertex="1" parent="1">
          <mxGeometry x="340" y="160" width="120" height="60" as="geometry" />
        </mxCell>
        <mxCell id="tKwwfUB_ikjW06GqXjzd-4" value="" style="whiteSpace=wrap;html=1;rounded=1;" vertex="1" parent="1">
          <mxGeometry x="190" y="160" width="120" height="60" as="geometry" />
        </mxCell>
        <mxCell id="tKwwfUB_ikjW06GqXjzd-6" value="" style="whiteSpace=wrap;html=1;rounded=1;" vertex="1" parent="1">
          <mxGeometry x="490" y="160" width="120" height="60" as="geometry" />
        </mxCell>
        <mxCell id="tKwwfUB_ikjW06GqXjzd-31" style="edgeStyle=orthogonalEdgeStyle;rounded=0;orthogonalLoop=1;jettySize=auto;html=1;entryX=0.5;entryY=0;entryDx=0;entryDy=0;" edge="1" parent="1" source="tKwwfUB_ikjW06GqXjzd-8" target="tKwwfUB_ikjW06GqXjzd-25">
          <mxGeometry relative="1" as="geometry">
            <Array as="points">
              <mxPoint x="470" y="470" />
              <mxPoint x="470" y="470" />
            </Array>
          </mxGeometry>
        </mxCell>
        <mxCell id="tKwwfUB_ikjW06GqXjzd-8" value="новосная лента" style="whiteSpace=wrap;html=1;rounded=1;fillColor=#fff2cc;strokeColor=#d6b656;" vertex="1" parent="1">
          <mxGeometry x="410" y="300" width="120" height="60" as="geometry" />
        </mxCell>
        <mxCell id="tKwwfUB_ikjW06GqXjzd-23" value="" style="edgeStyle=orthogonalEdgeStyle;rounded=0;orthogonalLoop=1;jettySize=auto;html=1;" edge="1" parent="1" source="tKwwfUB_ikjW06GqXjzd-10" target="tKwwfUB_ikjW06GqXjzd-22">
          <mxGeometry relative="1" as="geometry" />
        </mxCell>
        <mxCell id="tKwwfUB_ikjW06GqXjzd-10" value="профиль" style="whiteSpace=wrap;html=1;rounded=1;fillColor=#fff2cc;strokeColor=#d6b656;" vertex="1" parent="1">
          <mxGeometry x="270" y="300" width="120" height="60" as="geometry" />
        </mxCell>
        <mxCell id="tKwwfUB_ikjW06GqXjzd-44" value="" style="edgeStyle=orthogonalEdgeStyle;rounded=0;orthogonalLoop=1;jettySize=auto;html=1;" edge="1" parent="1" source="tKwwfUB_ikjW06GqXjzd-12" target="tKwwfUB_ikjW06GqXjzd-43">
          <mxGeometry relative="1" as="geometry" />
        </mxCell>
        <mxCell id="tKwwfUB_ikjW06GqXjzd-12" value="мессенджер" style="whiteSpace=wrap;html=1;rounded=1;" vertex="1" parent="1">
          <mxGeometry x="620" y="300" width="120" height="60" as="geometry" />
        </mxCell>
        <mxCell id="tKwwfUB_ikjW06GqXjzd-19" value="" style="edgeStyle=orthogonalEdgeStyle;rounded=0;orthogonalLoop=1;jettySize=auto;html=1;" edge="1" parent="1" source="tKwwfUB_ikjW06GqXjzd-14" target="tKwwfUB_ikjW06GqXjzd-18">
          <mxGeometry relative="1" as="geometry" />
        </mxCell>
        <mxCell id="tKwwfUB_ikjW06GqXjzd-14" value="дата базы" style="whiteSpace=wrap;html=1;rounded=1;fillColor=#fff2cc;strokeColor=#d6b656;" vertex="1" parent="1">
          <mxGeometry x="130" y="300" width="120" height="60" as="geometry" />
        </mxCell>
        <mxCell id="tKwwfUB_ikjW06GqXjzd-59" style="edgeStyle=orthogonalEdgeStyle;rounded=0;orthogonalLoop=1;jettySize=auto;html=1;exitX=1;exitY=0.25;exitDx=0;exitDy=0;entryX=0;entryY=0.5;entryDx=0;entryDy=0;" edge="1" parent="1" source="tKwwfUB_ikjW06GqXjzd-18" target="tKwwfUB_ikjW06GqXjzd-22">
          <mxGeometry relative="1" as="geometry" />
        </mxCell>
        <mxCell id="tKwwfUB_ikjW06GqXjzd-60" style="edgeStyle=orthogonalEdgeStyle;rounded=0;orthogonalLoop=1;jettySize=auto;html=1;exitX=1;exitY=0.25;exitDx=0;exitDy=0;entryX=0;entryY=0.5;entryDx=0;entryDy=0;" edge="1" parent="1" source="tKwwfUB_ikjW06GqXjzd-18" target="tKwwfUB_ikjW06GqXjzd-43">
          <mxGeometry relative="1" as="geometry">
            <Array as="points">
              <mxPoint x="420" y="488" />
              <mxPoint x="420" y="420" />
            </Array>
          </mxGeometry>
        </mxCell>
        <mxCell id="tKwwfUB_ikjW06GqXjzd-61" style="edgeStyle=orthogonalEdgeStyle;rounded=0;orthogonalLoop=1;jettySize=auto;html=1;exitX=1;exitY=0.25;exitDx=0;exitDy=0;entryX=0;entryY=0.5;entryDx=0;entryDy=0;" edge="1" parent="1" source="tKwwfUB_ikjW06GqXjzd-18" target="tKwwfUB_ikjW06GqXjzd-25">
          <mxGeometry relative="1" as="geometry">
            <Array as="points">
              <mxPoint x="280" y="488" />
              <mxPoint x="280" y="660" />
            </Array>
          </mxGeometry>
        </mxCell>
        <mxCell id="tKwwfUB_ikjW06GqXjzd-18" value="базы данных" style="whiteSpace=wrap;html=1;rounded=1;fillColor=#fff2cc;strokeColor=#d6b656;" vertex="1" parent="1">
          <mxGeometry x="120" y="440" width="140" height="190" as="geometry" />
        </mxCell>
        <mxCell id="tKwwfUB_ikjW06GqXjzd-20" value="основная" style="rounded=1;whiteSpace=wrap;html=1;fillColor=#d5e8d4;strokeColor=#82b366;arcSize=19;" vertex="1" parent="1">
          <mxGeometry x="130" y="460" width="120" height="60" as="geometry" />
        </mxCell>
        <mxCell id="tKwwfUB_ikjW06GqXjzd-21" value="для храннения переписок" style="rounded=1;whiteSpace=wrap;html=1;" vertex="1" parent="1">
          <mxGeometry x="130" y="550" width="120" height="60" as="geometry" />
        </mxCell>
        <mxCell id="tKwwfUB_ikjW06GqXjzd-26" value="" style="edgeStyle=orthogonalEdgeStyle;rounded=0;orthogonalLoop=1;jettySize=auto;html=1;" edge="1" parent="1" source="tKwwfUB_ikjW06GqXjzd-22" target="tKwwfUB_ikjW06GqXjzd-25">
          <mxGeometry relative="1" as="geometry" />
        </mxCell>
        <mxCell id="tKwwfUB_ikjW06GqXjzd-36" style="edgeStyle=orthogonalEdgeStyle;rounded=0;orthogonalLoop=1;jettySize=auto;html=1;entryX=0.5;entryY=0;entryDx=0;entryDy=0;" edge="1" parent="1" source="tKwwfUB_ikjW06GqXjzd-22" target="tKwwfUB_ikjW06GqXjzd-37">
          <mxGeometry relative="1" as="geometry">
            <mxPoint x="354" y="680" as="targetPoint" />
            <Array as="points">
              <mxPoint x="354" y="630" />
              <mxPoint x="300" y="630" />
            </Array>
          </mxGeometry>
        </mxCell>
        <mxCell id="tKwwfUB_ikjW06GqXjzd-22" value="отображение профиля" style="rounded=1;whiteSpace=wrap;html=1;fillColor=#d5e8d4;strokeColor=#82b366;" vertex="1" parent="1">
          <mxGeometry x="294" y="390" width="120" height="60" as="geometry" />
        </mxCell>
        <mxCell id="tKwwfUB_ikjW06GqXjzd-30" value="" style="edgeStyle=orthogonalEdgeStyle;rounded=0;orthogonalLoop=1;jettySize=auto;html=1;" edge="1" parent="1" source="tKwwfUB_ikjW06GqXjzd-25" target="tKwwfUB_ikjW06GqXjzd-29">
          <mxGeometry relative="1" as="geometry" />
        </mxCell>
        <mxCell id="tKwwfUB_ikjW06GqXjzd-25" value="отображение новостей" style="whiteSpace=wrap;html=1;rounded=1;fillColor=#d5e8d4;strokeColor=#82b366;" vertex="1" parent="1">
          <mxGeometry x="410" y="630" width="120" height="60" as="geometry" />
        </mxCell>
        <mxCell id="tKwwfUB_ikjW06GqXjzd-35" value="" style="edgeStyle=orthogonalEdgeStyle;rounded=0;orthogonalLoop=1;jettySize=auto;html=1;" edge="1" parent="1" source="tKwwfUB_ikjW06GqXjzd-29" target="tKwwfUB_ikjW06GqXjzd-34">
          <mxGeometry relative="1" as="geometry" />
        </mxCell>
        <mxCell id="tKwwfUB_ikjW06GqXjzd-62" style="edgeStyle=orthogonalEdgeStyle;rounded=0;orthogonalLoop=1;jettySize=auto;html=1;exitX=0;exitY=0.5;exitDx=0;exitDy=0;entryX=1;entryY=0.75;entryDx=0;entryDy=0;" edge="1" parent="1" source="tKwwfUB_ikjW06GqXjzd-29" target="tKwwfUB_ikjW06GqXjzd-18">
          <mxGeometry relative="1" as="geometry">
            <Array as="points">
              <mxPoint x="390" y="740" />
              <mxPoint x="390" y="583" />
            </Array>
          </mxGeometry>
        </mxCell>
        <mxCell id="tKwwfUB_ikjW06GqXjzd-29" value="добавление новостей" style="whiteSpace=wrap;html=1;rounded=1;fillColor=#d5e8d4;strokeColor=#82b366;" vertex="1" parent="1">
          <mxGeometry x="410" y="710" width="120" height="60" as="geometry" />
        </mxCell>
        <mxCell id="tKwwfUB_ikjW06GqXjzd-40" value="" style="edgeStyle=orthogonalEdgeStyle;rounded=0;orthogonalLoop=1;jettySize=auto;html=1;" edge="1" parent="1" source="tKwwfUB_ikjW06GqXjzd-34" target="tKwwfUB_ikjW06GqXjzd-39">
          <mxGeometry relative="1" as="geometry" />
        </mxCell>
        <mxCell id="tKwwfUB_ikjW06GqXjzd-63" style="edgeStyle=orthogonalEdgeStyle;rounded=0;orthogonalLoop=1;jettySize=auto;html=1;exitX=0;exitY=0.5;exitDx=0;exitDy=0;" edge="1" parent="1" source="tKwwfUB_ikjW06GqXjzd-34">
          <mxGeometry relative="1" as="geometry">
            <mxPoint x="390" y="740" as="targetPoint" />
          </mxGeometry>
        </mxCell>
        <mxCell id="tKwwfUB_ikjW06GqXjzd-34" value="добовление изображений" style="whiteSpace=wrap;html=1;rounded=1;fillColor=#d5e8d4;strokeColor=#82b366;" vertex="1" parent="1">
          <mxGeometry x="410" y="790" width="120" height="60" as="geometry" />
        </mxCell>
        <mxCell id="tKwwfUB_ikjW06GqXjzd-66" style="edgeStyle=orthogonalEdgeStyle;rounded=0;orthogonalLoop=1;jettySize=auto;html=1;" edge="1" parent="1" source="tKwwfUB_ikjW06GqXjzd-37">
          <mxGeometry relative="1" as="geometry">
            <mxPoint x="300" y="580" as="targetPoint" />
          </mxGeometry>
        </mxCell>
        <mxCell id="tKwwfUB_ikjW06GqXjzd-78" value="" style="edgeStyle=orthogonalEdgeStyle;rounded=0;orthogonalLoop=1;jettySize=auto;html=1;" edge="1" parent="1" source="tKwwfUB_ikjW06GqXjzd-37" target="tKwwfUB_ikjW06GqXjzd-77">
          <mxGeometry relative="1" as="geometry" />
        </mxCell>
        <mxCell id="tKwwfUB_ikjW06GqXjzd-37" value="добавление аватара" style="rounded=1;whiteSpace=wrap;html=1;" vertex="1" parent="1">
          <mxGeometry x="240" y="760" width="120" height="60" as="geometry" />
        </mxCell>
        <mxCell id="tKwwfUB_ikjW06GqXjzd-42" value="" style="edgeStyle=orthogonalEdgeStyle;rounded=0;orthogonalLoop=1;jettySize=auto;html=1;" edge="1" parent="1" source="tKwwfUB_ikjW06GqXjzd-39" target="tKwwfUB_ikjW06GqXjzd-41">
          <mxGeometry relative="1" as="geometry" />
        </mxCell>
        <mxCell id="tKwwfUB_ikjW06GqXjzd-64" style="edgeStyle=orthogonalEdgeStyle;rounded=0;orthogonalLoop=1;jettySize=auto;html=1;exitX=0;exitY=0.5;exitDx=0;exitDy=0;" edge="1" parent="1" source="tKwwfUB_ikjW06GqXjzd-39">
          <mxGeometry relative="1" as="geometry">
            <mxPoint x="390" y="820" as="targetPoint" />
          </mxGeometry>
        </mxCell>
        <mxCell id="tKwwfUB_ikjW06GqXjzd-39" value="интеграция с spotify" style="whiteSpace=wrap;html=1;rounded=1;" vertex="1" parent="1">
          <mxGeometry x="410" y="870" width="120" height="60" as="geometry" />
        </mxCell>
        <mxCell id="tKwwfUB_ikjW06GqXjzd-65" style="edgeStyle=orthogonalEdgeStyle;rounded=0;orthogonalLoop=1;jettySize=auto;html=1;exitX=0;exitY=0.5;exitDx=0;exitDy=0;" edge="1" parent="1" source="tKwwfUB_ikjW06GqXjzd-41">
          <mxGeometry relative="1" as="geometry">
            <mxPoint x="390" y="900" as="targetPoint" />
          </mxGeometry>
        </mxCell>
        <mxCell id="tKwwfUB_ikjW06GqXjzd-41" value="интеграция с youtube" style="whiteSpace=wrap;html=1;rounded=1;" vertex="1" parent="1">
          <mxGeometry x="410" y="950" width="120" height="60" as="geometry" />
        </mxCell>
        <mxCell id="tKwwfUB_ikjW06GqXjzd-46" value="" style="edgeStyle=orthogonalEdgeStyle;rounded=0;orthogonalLoop=1;jettySize=auto;html=1;" edge="1" parent="1" source="tKwwfUB_ikjW06GqXjzd-43" target="tKwwfUB_ikjW06GqXjzd-45">
          <mxGeometry relative="1" as="geometry" />
        </mxCell>
        <mxCell id="tKwwfUB_ikjW06GqXjzd-43" value="отображение сообщений" style="whiteSpace=wrap;html=1;rounded=1;" vertex="1" parent="1">
          <mxGeometry x="620" y="390" width="120" height="60" as="geometry" />
        </mxCell>
        <mxCell id="tKwwfUB_ikjW06GqXjzd-48" value="" style="edgeStyle=orthogonalEdgeStyle;rounded=0;orthogonalLoop=1;jettySize=auto;html=1;" edge="1" parent="1" source="tKwwfUB_ikjW06GqXjzd-45" target="tKwwfUB_ikjW06GqXjzd-47">
          <mxGeometry relative="1" as="geometry" />
        </mxCell>
        <mxCell id="tKwwfUB_ikjW06GqXjzd-67" style="edgeStyle=orthogonalEdgeStyle;rounded=0;orthogonalLoop=1;jettySize=auto;html=1;exitX=0;exitY=0.5;exitDx=0;exitDy=0;entryX=1;entryY=0.75;entryDx=0;entryDy=0;" edge="1" parent="1" source="tKwwfUB_ikjW06GqXjzd-45" target="tKwwfUB_ikjW06GqXjzd-18">
          <mxGeometry relative="1" as="geometry">
            <mxPoint x="390" y="580" as="targetPoint" />
            <Array as="points">
              <mxPoint x="390" y="510" />
              <mxPoint x="390" y="583" />
            </Array>
          </mxGeometry>
        </mxCell>
        <mxCell id="tKwwfUB_ikjW06GqXjzd-45" value="отправка сообщений" style="whiteSpace=wrap;html=1;rounded=1;" vertex="1" parent="1">
          <mxGeometry x="620" y="480" width="120" height="60" as="geometry" />
        </mxCell>
        <mxCell id="tKwwfUB_ikjW06GqXjzd-68" style="edgeStyle=orthogonalEdgeStyle;rounded=0;orthogonalLoop=1;jettySize=auto;html=1;exitX=0;exitY=0.5;exitDx=0;exitDy=0;" edge="1" parent="1" source="tKwwfUB_ikjW06GqXjzd-47">
          <mxGeometry relative="1" as="geometry">
            <mxPoint x="600" y="510" as="targetPoint" />
          </mxGeometry>
        </mxCell>
        <mxCell id="tKwwfUB_ikjW06GqXjzd-76" style="edgeStyle=orthogonalEdgeStyle;rounded=0;orthogonalLoop=1;jettySize=auto;html=1;exitX=0.5;exitY=1;exitDx=0;exitDy=0;entryX=0.5;entryY=0;entryDx=0;entryDy=0;" edge="1" parent="1" source="tKwwfUB_ikjW06GqXjzd-47" target="tKwwfUB_ikjW06GqXjzd-71">
          <mxGeometry relative="1" as="geometry" />
        </mxCell>
        <mxCell id="tKwwfUB_ikjW06GqXjzd-47" value="добавление изображений" style="whiteSpace=wrap;html=1;rounded=1;" vertex="1" parent="1">
          <mxGeometry x="620" y="570" width="120" height="60" as="geometry" />
        </mxCell>
        <mxCell id="tKwwfUB_ikjW06GqXjzd-69" style="edgeStyle=orthogonalEdgeStyle;rounded=0;orthogonalLoop=1;jettySize=auto;html=1;exitX=0;exitY=0.5;exitDx=0;exitDy=0;" edge="1" parent="1" source="tKwwfUB_ikjW06GqXjzd-71">
          <mxGeometry relative="1" as="geometry">
            <mxPoint x="600" y="600" as="targetPoint" />
            <mxPoint x="620.0000000000002" y="690" as="sourcePoint" />
            <Array as="points">
              <mxPoint x="600" y="690" />
            </Array>
          </mxGeometry>
        </mxCell>
        <mxCell id="tKwwfUB_ikjW06GqXjzd-70" value="" style="edgeStyle=orthogonalEdgeStyle;rounded=0;orthogonalLoop=1;jettySize=auto;html=1;" edge="1" parent="1" source="tKwwfUB_ikjW06GqXjzd-71" target="tKwwfUB_ikjW06GqXjzd-73">
          <mxGeometry relative="1" as="geometry" />
        </mxCell>
        <mxCell id="tKwwfUB_ikjW06GqXjzd-71" value="интеграция с spotify" style="whiteSpace=wrap;html=1;rounded=1;" vertex="1" parent="1">
          <mxGeometry x="620" y="660" width="120" height="60" as="geometry" />
        </mxCell>
        <mxCell id="tKwwfUB_ikjW06GqXjzd-72" style="edgeStyle=orthogonalEdgeStyle;rounded=0;orthogonalLoop=1;jettySize=auto;html=1;exitX=0;exitY=0.5;exitDx=0;exitDy=0;" edge="1" parent="1" source="tKwwfUB_ikjW06GqXjzd-73">
          <mxGeometry relative="1" as="geometry">
            <mxPoint x="600" y="690" as="targetPoint" />
          </mxGeometry>
        </mxCell>
        <mxCell id="tKwwfUB_ikjW06GqXjzd-86" style="edgeStyle=orthogonalEdgeStyle;rounded=0;orthogonalLoop=1;jettySize=auto;html=1;entryX=0.5;entryY=0;entryDx=0;entryDy=0;" edge="1" parent="1" source="tKwwfUB_ikjW06GqXjzd-73" target="tKwwfUB_ikjW06GqXjzd-85">
          <mxGeometry relative="1" as="geometry" />
        </mxCell>
        <mxCell id="tKwwfUB_ikjW06GqXjzd-73" value="интеграция с youtube" style="whiteSpace=wrap;html=1;rounded=1;" vertex="1" parent="1">
          <mxGeometry x="620" y="740" width="120" height="60" as="geometry" />
        </mxCell>
        <mxCell id="tKwwfUB_ikjW06GqXjzd-80" value="" style="edgeStyle=orthogonalEdgeStyle;rounded=0;orthogonalLoop=1;jettySize=auto;html=1;" edge="1" parent="1" source="tKwwfUB_ikjW06GqXjzd-77" target="tKwwfUB_ikjW06GqXjzd-79">
          <mxGeometry relative="1" as="geometry" />
        </mxCell>
        <mxCell id="tKwwfUB_ikjW06GqXjzd-77" value="смена темы сайта" style="whiteSpace=wrap;html=1;rounded=1;" vertex="1" parent="1">
          <mxGeometry x="240" y="850" width="120" height="60" as="geometry" />
        </mxCell>
        <mxCell id="tKwwfUB_ikjW06GqXjzd-83" value="" style="edgeStyle=orthogonalEdgeStyle;rounded=0;orthogonalLoop=1;jettySize=auto;html=1;" edge="1" parent="1" source="tKwwfUB_ikjW06GqXjzd-79" target="tKwwfUB_ikjW06GqXjzd-82">
          <mxGeometry relative="1" as="geometry" />
        </mxCell>
        <mxCell id="tKwwfUB_ikjW06GqXjzd-79" value="добавление друзей" style="whiteSpace=wrap;html=1;rounded=1;" vertex="1" parent="1">
          <mxGeometry x="240" y="940" width="120" height="60" as="geometry" />
        </mxCell>
        <mxCell id="tKwwfUB_ikjW06GqXjzd-84" style="edgeStyle=orthogonalEdgeStyle;rounded=0;orthogonalLoop=1;jettySize=auto;html=1;" edge="1" parent="1" source="tKwwfUB_ikjW06GqXjzd-82" target="tKwwfUB_ikjW06GqXjzd-85">
          <mxGeometry relative="1" as="geometry">
            <mxPoint x="650" y="1060" as="targetPoint" />
          </mxGeometry>
        </mxCell>
        <mxCell id="tKwwfUB_ikjW06GqXjzd-82" value="профили ботов" style="whiteSpace=wrap;html=1;rounded=1;" vertex="1" parent="1">
          <mxGeometry x="240" y="1030" width="120" height="60" as="geometry" />
        </mxCell>
        <mxCell id="tKwwfUB_ikjW06GqXjzd-85" value="api для ботов" style="rounded=1;whiteSpace=wrap;html=1;" vertex="1" parent="1">
          <mxGeometry x="620" y="1030" width="120" height="60" as="geometry" />
        </mxCell>
        <mxCell id="tKwwfUB_ikjW06GqXjzd-89" style="edgeStyle=orthogonalEdgeStyle;rounded=0;orthogonalLoop=1;jettySize=auto;html=1;fillColor=#d5e8d4;strokeColor=#000000;" edge="1" parent="1" source="tKwwfUB_ikjW06GqXjzd-87" target="tKwwfUB_ikjW06GqXjzd-90">
          <mxGeometry relative="1" as="geometry">
            <mxPoint x="30" y="430" as="targetPoint" />
          </mxGeometry>
        </mxCell>
        <mxCell id="tKwwfUB_ikjW06GqXjzd-87" value="работа с изображениями" style="rounded=1;whiteSpace=wrap;html=1;fillColor=#d5e8d4;strokeColor=#82b366;" vertex="1" parent="1">
          <mxGeometry x="-30" y="300" width="120" height="60" as="geometry" />
        </mxCell>
        <mxCell id="tKwwfUB_ikjW06GqXjzd-90" value="сжатие изображений" style="rounded=1;whiteSpace=wrap;html=1;fillColor=#d5e8d4;strokeColor=#82b366;" vertex="1" parent="1">
          <mxGeometry x="-30" y="460" width="120" height="60" as="geometry" />
        </mxCell>
      </root>
    </mxGraphModel>
  </diagram>
</mxfile>
